<svg width="164" height="45" viewBox="0 0 164 45" fill="none" xmlns="http://www.w3.org/2000/svg">
<path d="M56.284 14.458C57.48 14.6833 58.4507 15.1253 59.196 15.784C59.9587 16.4427 60.34 17.4307 60.34 18.748C60.34 20.672 59.6467 22.0327 58.26 22.83C56.8907 23.61 54.9667 24 52.488 24H46.69V5.982H51.786C54.3167 5.982 56.2493 6.346 57.584 7.074C58.9187 7.78467 59.586 8.95467 59.586 10.584C59.586 11.6413 59.2653 12.4993 58.624 13.158C58 13.7993 57.22 14.2327 56.284 14.458ZM50.954 8.998V13.184H52.54C54.3427 13.184 55.244 12.456 55.244 11C55.244 10.272 55.0013 9.76067 54.516 9.466C54.0307 9.154 53.2593 8.998 52.202 8.998H50.954ZM52.514 20.906C53.6407 20.906 54.49 20.7413 55.062 20.412C55.6513 20.0653 55.946 19.4327 55.946 18.514C55.946 16.85 54.906 16.018 52.826 16.018H50.954V20.906H52.514ZM74.1799 24L73.2439 20.126H67.9919L67.0819 24H62.6619L68.0959 5.982H73.2699L78.7039 24H74.1799ZM68.7199 17.032H72.5159L70.6179 9.076L68.7199 17.032ZM99.9939 24H95.8079L95.4959 16.954C95.4092 15.2727 95.3659 13.7733 95.3659 12.456C95.3659 11.4507 95.3919 10.4973 95.4439 9.596L92.6619 22.102H88.6319L85.6679 9.596C85.7719 11.104 85.8239 12.5253 85.8239 13.86C85.8239 14.8653 85.7979 15.914 85.7459 17.006L85.4339 24H81.2739L82.6259 5.982H88.0079L90.7119 18.202L93.2339 5.982H98.6419L99.9939 24ZM114.219 14.458C115.415 14.6833 116.386 15.1253 117.131 15.784C117.894 16.4427 118.275 17.4307 118.275 18.748C118.275 20.672 117.582 22.0327 116.195 22.83C114.826 23.61 112.902 24 110.423 24H104.625V5.982H109.721C112.252 5.982 114.185 6.346 115.519 7.074C116.854 7.78467 117.521 8.95467 117.521 10.584C117.521 11.6413 117.201 12.4993 116.559 13.158C115.935 13.7993 115.155 14.2327 114.219 14.458ZM108.889 8.998V13.184H110.475C112.278 13.184 113.179 12.456 113.179 11C113.179 10.272 112.937 9.76067 112.451 9.466C111.966 9.154 111.195 8.998 110.137 8.998H108.889ZM110.449 20.906C111.576 20.906 112.425 20.7413 112.997 20.412C113.587 20.0653 113.881 19.4327 113.881 18.514C113.881 16.85 112.841 16.018 110.761 16.018H108.889V20.906H110.449ZM130.032 5.54C132.598 5.54 134.591 6.36333 136.012 8.01C137.451 9.65667 138.17 11.9793 138.17 14.978C138.17 16.9367 137.841 18.6267 137.182 20.048C136.541 21.4693 135.605 22.5613 134.374 23.324C133.161 24.0693 131.714 24.442 130.032 24.442C128.351 24.442 126.904 24.0693 125.69 23.324C124.477 22.5787 123.541 21.504 122.882 20.1C122.241 18.6787 121.92 16.9713 121.92 14.978C121.92 13.0367 122.241 11.3553 122.882 9.934C123.541 8.51267 124.477 7.42933 125.69 6.684C126.904 5.92133 128.351 5.54 130.032 5.54ZM130.032 8.66C128.802 8.66 127.883 9.16267 127.276 10.168C126.687 11.156 126.392 12.7593 126.392 14.978C126.392 17.1967 126.696 18.8087 127.302 19.814C127.909 20.8193 128.819 21.322 130.032 21.322C131.28 21.322 132.199 20.828 132.788 19.84C133.395 18.8347 133.698 17.214 133.698 14.978C133.698 12.742 133.395 11.13 132.788 10.142C132.182 9.154 131.263 8.66 130.032 8.66ZM150.089 5.54C152.654 5.54 154.647 6.36333 156.069 8.01C157.507 9.65667 158.227 11.9793 158.227 14.978C158.227 16.9367 157.897 18.6267 157.239 20.048C156.597 21.4693 155.661 22.5613 154.431 23.324C153.217 24.0693 151.77 24.442 150.089 24.442C148.407 24.442 146.96 24.0693 145.747 23.324C144.533 22.5787 143.597 21.504 142.939 20.1C142.297 18.6787 141.977 16.9713 141.977 14.978C141.977 13.0367 142.297 11.3553 142.939 9.934C143.597 8.51267 144.533 7.42933 145.747 6.684C146.96 5.92133 148.407 5.54 150.089 5.54ZM150.089 8.66C148.858 8.66 147.939 9.16267 147.333 10.168C146.743 11.156 146.449 12.7593 146.449 14.978C146.449 17.1967 146.752 18.8087 147.359 19.814C147.965 20.8193 148.875 21.322 150.089 21.322C151.337 21.322 152.255 20.828 152.845 19.84C153.451 18.8347 153.755 17.214 153.755 14.978C153.755 12.742 153.451 11.13 152.845 10.142C152.238 9.154 151.319 8.66 150.089 8.66Z" fill="#171717"/>
<path d="M51.376 41.182C50.7133 41.182 50.0903 41.0513 49.507 40.79C48.9237 40.524 48.4103 40.16 47.967 39.698C47.5283 39.2313 47.183 38.69 46.931 38.074C46.6837 37.458 46.56 36.8 46.56 36.1C46.56 35.4 46.6837 34.742 46.931 34.126C47.183 33.51 47.5283 32.971 47.967 32.509C48.4103 32.0423 48.9237 31.6783 49.507 31.417C50.0903 31.151 50.7133 31.018 51.376 31.018C52.1693 31.018 52.8997 31.2023 53.567 31.571C54.2343 31.9397 54.7873 32.4297 55.226 33.041L54.183 33.601C53.8563 33.1717 53.4433 32.831 52.944 32.579C52.4493 32.3223 51.9267 32.194 51.376 32.194C50.8673 32.194 50.3913 32.2967 49.948 32.502C49.5093 32.7073 49.1243 32.9897 48.793 33.349C48.4617 33.7083 48.2027 34.1237 48.016 34.595C47.8293 35.0663 47.736 35.568 47.736 36.1C47.736 36.6367 47.8293 37.1407 48.016 37.612C48.2073 38.0833 48.4687 38.4987 48.8 38.858C49.136 39.2173 49.5233 39.4997 49.962 39.705C50.4053 39.9057 50.8767 40.006 51.376 40.006C51.9453 40.006 52.4727 39.8777 52.958 39.621C53.448 39.3597 53.8563 39.019 54.183 38.599L55.226 39.166C54.7873 39.7773 54.2343 40.2673 53.567 40.636C52.8997 41 52.1693 41.182 51.376 41.182ZM60.4462 41.182C59.8022 41.182 59.2143 41.0163 58.6823 40.685C58.1549 40.3537 57.7326 39.9103 57.4152 39.355C57.1026 38.795 56.9462 38.1767 56.9462 37.5C56.9462 36.9867 57.0372 36.5083 57.2192 36.065C57.4012 35.617 57.6509 35.225 57.9682 34.889C58.2902 34.5483 58.6636 34.2823 59.0883 34.091C59.5129 33.8997 59.9656 33.804 60.4462 33.804C61.0902 33.804 61.6759 33.9697 62.2033 34.301C62.7353 34.6323 63.1576 35.078 63.4703 35.638C63.7876 36.198 63.9463 36.8187 63.9463 37.5C63.9463 38.0087 63.8553 38.4847 63.6733 38.928C63.4913 39.3713 63.2393 39.7633 62.9173 40.104C62.5999 40.44 62.2289 40.7037 61.8042 40.895C61.3843 41.0863 60.9316 41.182 60.4462 41.182ZM60.4462 40.006C60.8849 40.006 61.2793 39.8917 61.6293 39.663C61.9839 39.4297 62.2616 39.124 62.4623 38.746C62.6676 38.3633 62.7703 37.948 62.7703 37.5C62.7703 37.0427 62.6653 36.6227 62.4553 36.24C62.2499 35.8573 61.9723 35.5517 61.6223 35.323C61.2723 35.0943 60.8803 34.98 60.4462 34.98C60.0076 34.98 59.6133 35.0967 59.2633 35.33C58.9133 35.5587 58.6356 35.8643 58.4302 36.247C58.2249 36.6297 58.1222 37.0473 58.1222 37.5C58.1222 37.9667 58.2272 38.3913 58.4372 38.774C58.6472 39.152 58.9296 39.453 59.2843 39.677C59.6389 39.8963 60.0263 40.006 60.4462 40.006ZM72.4125 36.646V41H71.2365V36.905C71.2365 36.5503 71.1502 36.2283 70.9775 35.939C70.8049 35.6497 70.5739 35.421 70.2845 35.253C69.9952 35.0803 69.6732 34.994 69.3185 34.994C68.9685 34.994 68.6465 35.0803 68.3525 35.253C68.0632 35.421 67.8322 35.6497 67.6595 35.939C67.4869 36.2283 67.4005 36.5503 67.4005 36.905V41H66.2245V34H67.4005V34.875C67.6479 34.5483 67.9605 34.2893 68.3385 34.098C68.7165 33.902 69.1272 33.804 69.5705 33.804C70.0932 33.804 70.5692 33.9323 70.9985 34.189C71.4325 34.441 71.7755 34.7817 72.0275 35.211C72.2842 35.6403 72.4125 36.1187 72.4125 36.646ZM77.0674 41.133C76.6894 41.119 76.3208 41.049 75.9614 40.923C75.6068 40.7923 75.2941 40.6173 75.0234 40.398C74.7574 40.174 74.5638 39.9173 74.4424 39.628L75.4504 39.194C75.5204 39.3527 75.6464 39.502 75.8284 39.642C76.0104 39.782 76.2204 39.894 76.4584 39.978C76.6964 40.062 76.9368 40.104 77.1794 40.104C77.4361 40.104 77.6764 40.0643 77.9004 39.985C78.1244 39.9057 78.3064 39.789 78.4464 39.635C78.5911 39.4763 78.6634 39.2873 78.6634 39.068C78.6634 38.8347 78.5841 38.6527 78.4254 38.522C78.2714 38.3867 78.0754 38.2817 77.8374 38.207C77.6041 38.1277 77.3661 38.053 77.1234 37.983C76.6428 37.8617 76.2134 37.717 75.8354 37.549C75.4574 37.3763 75.1588 37.1593 74.9394 36.898C74.7248 36.632 74.6174 36.2937 74.6174 35.883C74.6174 35.449 74.7364 35.0733 74.9744 34.756C75.2171 34.4387 75.5344 34.1937 75.9264 34.021C76.3184 33.8483 76.7384 33.762 77.1864 33.762C77.7511 33.762 78.2668 33.8833 78.7334 34.126C79.2001 34.3687 79.5478 34.6977 79.7764 35.113L78.8314 35.666C78.7521 35.498 78.6308 35.351 78.4674 35.225C78.3041 35.0943 78.1174 34.9917 77.9074 34.917C77.6974 34.8423 77.4828 34.8027 77.2634 34.798C76.9928 34.7887 76.7384 34.8237 76.5004 34.903C76.2671 34.9823 76.0781 35.1037 75.9334 35.267C75.7934 35.4257 75.7234 35.624 75.7234 35.862C75.7234 36.0953 75.7981 36.2727 75.9474 36.394C76.1014 36.5153 76.2998 36.6133 76.5424 36.688C76.7898 36.758 77.0581 36.8397 77.3474 36.933C77.7721 37.0683 78.1688 37.2247 78.5374 37.402C78.9061 37.5793 79.2024 37.801 79.4264 38.067C79.6551 38.333 79.7671 38.662 79.7624 39.054C79.7624 39.4833 79.6341 39.859 79.3774 40.181C79.1208 40.4983 78.7871 40.741 78.3764 40.909C77.9704 41.077 77.5341 41.1517 77.0674 41.133ZM85.7077 35.176H84.1187L84.1117 41H82.9357L82.9427 35.176H81.7387V34H82.9427L82.9357 31.802H84.1117L84.1187 34H85.7077V35.176ZM88.0826 41V34H89.2586V34.875C89.5059 34.5483 89.8186 34.2893 90.1966 34.098C90.5746 33.902 90.9852 33.804 91.4286 33.804C91.6992 33.804 91.9606 33.839 92.2126 33.909L91.7366 35.085C91.5452 35.0243 91.3586 34.994 91.1766 34.994C90.8266 34.994 90.5046 35.0803 90.2106 35.253C89.9212 35.421 89.6902 35.6497 89.5176 35.939C89.3449 36.2283 89.2586 36.5503 89.2586 36.905V41H88.0826ZM93.8991 38.34V34H95.0751V38.081C95.0751 38.4357 95.1615 38.7577 95.3341 39.047C95.5068 39.3363 95.7378 39.5673 96.0271 39.74C96.3211 39.908 96.6431 39.992 96.9931 39.992C97.3478 39.992 97.6675 39.908 97.9521 39.74C98.2415 39.5673 98.4725 39.3363 98.6451 39.047C98.8178 38.7577 98.9041 38.4357 98.9041 38.081V34H100.08L100.087 41H98.9111L98.9041 40.111C98.6568 40.4377 98.3441 40.699 97.9661 40.895C97.5881 41.0863 97.1798 41.182 96.7411 41.182C96.2185 41.182 95.7401 41.056 95.3061 40.804C94.8768 40.5473 94.5338 40.2043 94.2771 39.775C94.0251 39.3457 93.8991 38.8673 93.8991 38.34ZM107.368 39.152L108.418 39.719C108.101 40.1623 107.697 40.517 107.207 40.783C106.722 41.049 106.195 41.182 105.625 41.182C104.981 41.182 104.393 41.0163 103.861 40.685C103.334 40.3537 102.912 39.9103 102.594 39.355C102.282 38.795 102.125 38.1767 102.125 37.5C102.125 36.9867 102.216 36.5083 102.398 36.065C102.58 35.617 102.83 35.225 103.147 34.889C103.469 34.5483 103.843 34.2823 104.267 34.091C104.692 33.8997 105.145 33.804 105.625 33.804C106.195 33.804 106.722 33.937 107.207 34.203C107.697 34.469 108.101 34.826 108.418 35.274L107.368 35.841C107.144 35.5657 106.878 35.3533 106.57 35.204C106.262 35.0547 105.947 34.98 105.625 34.98C105.191 34.98 104.797 35.0967 104.442 35.33C104.092 35.5587 103.815 35.8643 103.609 36.247C103.404 36.6297 103.301 37.0473 103.301 37.5C103.301 37.9527 103.404 38.3703 103.609 38.753C103.819 39.131 104.099 39.4343 104.449 39.663C104.804 39.8917 105.196 40.006 105.625 40.006C105.971 40.006 106.295 39.9267 106.598 39.768C106.902 39.6093 107.158 39.404 107.368 39.152ZM114.428 35.176H112.839L112.832 41H111.656L111.663 35.176H110.459V34H111.663L111.656 31.802H112.832L112.839 34H114.428V35.176ZM116.734 34H117.91V41H116.734V34ZM117.336 32.859C117.15 32.859 116.993 32.7983 116.867 32.677C116.741 32.5557 116.678 32.404 116.678 32.222C116.678 32.04 116.741 31.8883 116.867 31.767C116.993 31.6457 117.147 31.585 117.329 31.585C117.511 31.585 117.665 31.6457 117.791 31.767C117.917 31.8883 117.98 32.04 117.98 32.222C117.98 32.404 117.917 32.5557 117.791 32.677C117.67 32.7983 117.518 32.859 117.336 32.859ZM123.696 41.182C123.052 41.182 122.464 41.0163 121.932 40.685C121.405 40.3537 120.983 39.9103 120.665 39.355C120.353 38.795 120.196 38.1767 120.196 37.5C120.196 36.9867 120.287 36.5083 120.469 36.065C120.651 35.617 120.901 35.225 121.218 34.889C121.54 34.5483 121.914 34.2823 122.338 34.091C122.763 33.8997 123.216 33.804 123.696 33.804C124.34 33.804 124.926 33.9697 125.453 34.301C125.985 34.6323 126.408 35.078 126.72 35.638C127.038 36.198 127.196 36.8187 127.196 37.5C127.196 38.0087 127.105 38.4847 126.923 38.928C126.741 39.3713 126.489 39.7633 126.167 40.104C125.85 40.44 125.479 40.7037 125.054 40.895C124.634 41.0863 124.182 41.182 123.696 41.182ZM123.696 40.006C124.135 40.006 124.529 39.8917 124.879 39.663C125.234 39.4297 125.512 39.124 125.712 38.746C125.918 38.3633 126.02 37.948 126.02 37.5C126.02 37.0427 125.915 36.6227 125.705 36.24C125.5 35.8573 125.222 35.5517 124.872 35.323C124.522 35.0943 124.13 34.98 123.696 34.98C123.258 34.98 122.863 35.0967 122.513 35.33C122.163 35.5587 121.886 35.8643 121.68 36.247C121.475 36.6297 121.372 37.0473 121.372 37.5C121.372 37.9667 121.477 38.3913 121.687 38.774C121.897 39.152 122.18 39.453 122.534 39.677C122.889 39.8963 123.276 40.006 123.696 40.006ZM135.662 36.646V41H134.486V36.905C134.486 36.5503 134.4 36.2283 134.227 35.939C134.055 35.6497 133.824 35.421 133.534 35.253C133.245 35.0803 132.923 34.994 132.568 34.994C132.218 34.994 131.896 35.0803 131.602 35.253C131.313 35.421 131.082 35.6497 130.909 35.939C130.737 36.2283 130.65 36.5503 130.65 36.905V41H129.474V34H130.65V34.875C130.898 34.5483 131.21 34.2893 131.588 34.098C131.966 33.902 132.377 33.804 132.82 33.804C133.343 33.804 133.819 33.9323 134.248 34.189C134.682 34.441 135.025 34.7817 135.277 35.211C135.534 35.6403 135.662 36.1187 135.662 36.646ZM147.202 41.182C146.539 41.182 145.916 41.0513 145.333 40.79C144.749 40.524 144.236 40.16 143.793 39.698C143.354 39.2313 143.009 38.69 142.757 38.074C142.509 37.458 142.386 36.8 142.386 36.1C142.386 35.4 142.509 34.742 142.757 34.126C143.009 33.51 143.354 32.971 143.793 32.509C144.236 32.0423 144.749 31.6783 145.333 31.417C145.916 31.151 146.539 31.018 147.202 31.018C147.995 31.018 148.725 31.2023 149.393 31.571C150.06 31.9397 150.613 32.4297 151.052 33.041L150.009 33.601C149.682 33.1717 149.269 32.831 148.77 32.579C148.275 32.3223 147.752 32.194 147.202 32.194C146.693 32.194 146.217 32.2967 145.774 32.502C145.335 32.7073 144.95 32.9897 144.619 33.349C144.287 33.7083 144.028 34.1237 143.842 34.595C143.655 35.0663 143.562 35.568 143.562 36.1C143.562 36.6367 143.655 37.1407 143.842 37.612C144.033 38.0833 144.294 38.4987 144.626 38.858C144.962 39.2173 145.349 39.4997 145.788 39.705C146.231 39.9057 146.702 40.006 147.202 40.006C147.771 40.006 148.298 39.8777 148.784 39.621C149.274 39.3597 149.682 39.019 150.009 38.599L151.052 39.166C150.613 39.7773 150.06 40.2673 149.393 40.636C148.725 41 147.995 41.182 147.202 41.182ZM156.272 41.182C155.628 41.182 155.04 41.0163 154.508 40.685C153.981 40.3537 153.558 39.9103 153.241 39.355C152.928 38.795 152.772 38.1767 152.772 37.5C152.772 36.9867 152.863 36.5083 153.045 36.065C153.227 35.617 153.477 35.225 153.794 34.889C154.116 34.5483 154.489 34.2823 154.914 34.091C155.339 33.8997 155.791 33.804 156.272 33.804C156.916 33.804 157.502 33.9697 158.029 34.301C158.561 34.6323 158.983 35.078 159.296 35.638C159.613 36.198 159.772 36.8187 159.772 37.5C159.772 38.0087 159.681 38.4847 159.499 38.928C159.317 39.3713 159.065 39.7633 158.743 40.104C158.426 40.44 158.055 40.7037 157.63 40.895C157.21 41.0863 156.757 41.182 156.272 41.182ZM156.272 40.006C156.711 40.006 157.105 39.8917 157.455 39.663C157.81 39.4297 158.087 39.124 158.288 38.746C158.493 38.3633 158.596 37.948 158.596 37.5C158.596 37.0427 158.491 36.6227 158.281 36.24C158.076 35.8573 157.798 35.5517 157.448 35.323C157.098 35.0943 156.706 34.98 156.272 34.98C155.833 34.98 155.439 35.0967 155.089 35.33C154.739 35.5587 154.461 35.8643 154.256 36.247C154.051 36.6297 153.948 37.0473 153.948 37.5C153.948 37.9667 154.053 38.3913 154.263 38.774C154.473 39.152 154.755 39.453 155.11 39.677C155.465 39.8963 155.852 40.006 156.272 40.006ZM162.366 41.182C162.189 41.182 162.037 41.119 161.911 40.993C161.79 40.867 161.729 40.713 161.729 40.531C161.729 40.3583 161.79 40.209 161.911 40.083C162.037 39.957 162.189 39.894 162.366 39.894C162.548 39.894 162.702 39.957 162.828 40.083C162.954 40.209 163.017 40.3583 163.017 40.531C163.017 40.713 162.954 40.867 162.828 40.993C162.702 41.119 162.548 41.182 162.366 41.182Z" fill="#858585"/>
<rect x="19" y="11" width="14" height="31" rx="2" fill="#F0A500"/>
<rect y="19" width="14" height="23" rx="2" fill="#334756"/>
<path d="M26 1L33 8L26 6.25L19 8L26 1Z" fill="#334756"/>
</svg>
