<svg width="10" height="10" viewBox="0 0 10 10" fill="none" xmlns="http://www.w3.org/2000/svg">
<path d="M3.15789 0C2.32037 0 1.51715 0.332706 0.924926 0.924926C0.332706 1.51715 0 2.32037 0 3.15789V6.84211C0 7.67963 0.332706 8.48285 0.924926 9.07508C1.51715 9.66729 2.32037 10 3.15789 10H6.84211C7.67963 10 8.48285 9.66729 9.07508 9.07508C9.66729 8.48285 10 7.67963 10 6.84211V4.21053C10 4.07094 9.94455 3.93707 9.84585 3.83837C9.74714 3.73966 9.61327 3.68421 9.47368 3.68421H8.94737C8.80778 3.68421 8.67391 3.62876 8.57521 3.53006C8.4765 3.43135 8.42105 3.29748 8.42105 3.15789C8.42105 2.32037 8.08835 1.51715 7.49613 0.924926C6.90391 0.332706 6.10068 0 5.26316 0H3.15789ZM3.15789 2.63158H5.26316C5.55263 2.63158 5.78947 2.86842 5.78947 3.15789C5.78947 3.44737 5.55263 3.68421 5.26316 3.68421H3.15789C2.86842 3.68421 2.63158 3.44737 2.63158 3.15789C2.63158 2.86842 2.86842 2.63158 3.15789 2.63158ZM3.15789 6.31579H6.84211C7.13158 6.31579 7.36842 6.55263 7.36842 6.84211C7.36842 7.13158 7.13158 7.36842 6.84211 7.36842H3.15789C2.86842 7.36842 2.63158 7.13158 2.63158 6.84211C2.63158 6.55263 2.86842 6.31579 3.15789 6.31579Z" fill="#171717"/>
</svg>
