<svg width="12" height="12" viewBox="0 0 12 12" fill="none" xmlns="http://www.w3.org/2000/svg">
<path d="M3.52855 0C1.59164 0 0 1.58945 0 3.52855V8.47145C0 10.4084 1.58945 12 3.52855 12H8.47145C10.4084 12 12 10.4105 12 8.47145V3.52909C12 1.59164 10.4105 0 8.47145 0H3.52855ZM3.52855 1.09091H8.47145C8.79169 1.09048 9.10886 1.15324 9.40481 1.27559C9.70075 1.39794 9.96964 1.57747 10.1961 1.80392C10.4225 2.03036 10.6021 2.29925 10.7244 2.59519C10.8468 2.89113 10.9095 3.20831 10.9091 3.52855V8.47145C10.9095 8.79169 10.8468 9.10886 10.7244 9.40481C10.6021 9.70075 10.4225 9.96964 10.1961 10.1961C9.96964 10.4225 9.70075 10.6021 9.40481 10.7244C9.10886 10.8468 8.79169 10.9095 8.47145 10.9091H3.52909C3.20881 10.9096 2.89158 10.8469 2.59557 10.7246C2.29957 10.6023 2.03061 10.4227 1.80411 10.1963C1.57761 9.96983 1.39802 9.70091 1.27564 9.40493C1.15325 9.10896 1.09048 8.79174 1.09091 8.47145V3.52909C1.09041 3.20881 1.15311 2.89158 1.27543 2.59557C1.39775 2.29957 1.57727 2.03061 1.80372 1.80411C2.03017 1.57761 2.29909 1.39802 2.59507 1.27564C2.89104 1.15325 3.20826 1.09048 3.52855 1.09091ZM9.22145 2.28436C9.15648 2.28407 9.09208 2.29666 9.032 2.32139C8.97191 2.34613 8.91732 2.38252 8.87137 2.42846C8.82543 2.47441 8.78903 2.529 8.7643 2.58909C8.73957 2.64918 8.72698 2.71357 8.72727 2.77855C8.72727 3.05345 8.94655 3.27273 9.22145 3.27273C9.28648 3.27309 9.35093 3.26056 9.41108 3.23586C9.47123 3.21116 9.52589 3.17478 9.57189 3.12882C9.6179 3.08287 9.65434 3.02825 9.6791 2.96813C9.70387 2.90801 9.71647 2.84357 9.71618 2.77855C9.71647 2.71352 9.70387 2.64909 9.6791 2.58896C9.65434 2.52884 9.6179 2.47422 9.57189 2.42827C9.52589 2.38231 9.47123 2.34594 9.41108 2.32123C9.35093 2.29653 9.28648 2.284 9.22145 2.28436ZM6 2.72727C4.2 2.72727 2.72727 4.2 2.72727 6C2.72727 7.8 4.2 9.27273 6 9.27273C7.8 9.27273 9.27273 7.8 9.27273 6C9.27273 4.2 7.8 2.72727 6 2.72727ZM6 3.81818C7.21255 3.81818 8.18182 4.78745 8.18182 6C8.18182 7.21255 7.21255 8.18182 6 8.18182C4.78745 8.18182 3.81818 7.21255 3.81818 6C3.81818 4.78745 4.78745 3.81818 6 3.81818Z" fill="#171717"/>
</svg>
