<svg width="12" height="12" viewBox="0 0 12 12" fill="none" xmlns="http://www.w3.org/2000/svg">
<path d="M1.51029 4.13183e-07C1.31205 -0.000142895 1.11574 0.036994 0.932543 0.10929C0.74935 0.181586 0.582874 0.287624 0.442624 0.421348C0.302373 0.555071 0.191096 0.71386 0.11515 0.888643C0.0392033 1.06343 7.50024e-05 1.25078 0 1.44C0 2.23636 0.676 2.89636 1.50857 2.89636C2.34229 2.89636 3.01886 2.23636 3.01886 1.44109C3.01901 1.2519 2.9801 1.06453 2.90435 0.889692C2.82861 0.714857 2.71751 0.555984 2.57741 0.422152C2.43731 0.28832 2.27096 0.182153 2.08786 0.109718C1.90475 0.0372831 1.70849 3.58892e-07 1.51029 4.13183e-07ZM8.87714 3.81818C7.60914 3.81818 6.884 4.45091 6.53543 5.08036H6.49886V3.98782H4V12H6.604V8.034C6.604 6.98891 6.68629 5.97873 8.04114 5.97873C9.37657 5.97873 9.396 7.17055 9.396 8.1V12H12V7.59927C12 5.44582 11.5149 3.81818 8.87714 3.81818ZM0.207429 3.98727V12H2.81314V3.98727H0.207429Z" fill="#171717"/>
</svg>
