<svg width="12" height="11" viewBox="0 0 12 11" fill="none" xmlns="http://www.w3.org/2000/svg">
<path d="M12 1.30488C11.5507 1.52918 11.074 1.6761 10.586 1.74072C11.0998 1.39378 11.4843 0.848164 11.668 0.205399C11.1848 0.528328 10.6564 0.756353 10.1055 0.879745C9.76798 0.472855 9.32971 0.189892 8.84768 0.0676496C8.36564 -0.0545932 7.86214 -0.0104599 7.40264 0.19431C6.94315 0.39908 6.54891 0.755014 6.27121 1.21583C5.9935 1.67664 5.84517 2.22102 5.8455 2.77817C5.8455 2.99638 5.867 3.20781 5.9105 3.41023C4.93126 3.35588 3.97316 3.06945 3.09864 2.56962C2.22413 2.06979 1.45283 1.36777 0.835 0.509306C0.615488 0.93303 0.500352 1.41519 0.5015 1.90592C0.5015 2.86839 0.935 3.71865 1.597 4.21651C1.20598 4.20252 0.823629 4.08303 0.482 3.86806V3.90359C0.481662 4.54476 0.678215 5.16629 1.03826 5.66254C1.3983 6.1588 1.89961 6.49916 2.457 6.62578C2.09453 6.73787 1.71406 6.75446 1.345 6.67427C1.5022 7.22587 1.80827 7.70832 2.22044 8.05424C2.63261 8.40015 3.13031 8.59225 3.644 8.6037C3.13332 9.05571 2.54861 9.38972 1.92332 9.58661C1.29804 9.78349 0.644464 9.83939 0 9.75111C1.12526 10.5677 2.43537 11.0013 3.7735 11C8.3025 11 10.7795 6.76899 10.7795 3.09956C10.7795 2.98115 10.7755 2.85936 10.7715 2.7404C11.2528 2.34743 11.6687 1.86164 12 1.30544V1.30488Z" fill="#171717"/>
</svg>
